J. Edgar (2011) 1080p MKV x264 AC3+DTS English Subs
.
Geen nl subs zodra die er zijn zal ik die appart plaatsen. Lees ook de nfo in deze torrent.
Indien iemand de dvd versie wil, geef je maar een seintje.
.
[IMG]http://img542.imageshack.us/img542/4346/je2012.jpg[/IMG]
.
Verenigde Staten
Drama
137 minuten

geregisseerd door Clint Eastwood
met Leonardo DiCaprio, Naomi Watts en Josh Lucas

De film vertelt het verhaal van de voormalige directeur van de FBI, J. Edgar Hoover. De focus wordt gelegd op de schandalen in zijn carriÞre en zijn controversiÙle privÚleven. Helen Gandy, de vrouw die 54 jaar lang zijn secretaresse was, had een aanzienlijke invloed op de directeur en was, naar het schijnt, op de hoogte van zijn geheimen. En geheimen had hij zeker. Zo had Hoover onder andere jarenlang een geheime relatie met zijn mannelijke assistent Clyde Tolson.

Momenteel te zien in 7 bioscopen
. 
http://www.moviemeter.nl/film/78754
.
PLOT
.
As the face of law enforcement in America for almost 50 years, J. Edgar Hoover was feared and admired, reviled and revered. But behind closed doors, he held secrets that would have destroyed his image, his career and his life. 
. 
http://www.imdb.com/title/tt1616195/
.
INFO
.
Format                           : Matroska
Format version                   : Version 2
File size                        : 10.5 GiB
Duration                         : 2h 16mn
Overall bit rate                 : 10.9 Mbps
Encoded date                     : UTC 2012-02-11 10:02:11
Writing application              : mkvmerge v5.2.0 ('I can't explain') built on Dec 18 2011 18:12:03
Writing library                  : libebml v1.2.3 + libmatroska v1.3.0

Video
ID                               : 1
Format                           : AVC
Format/Info                      : Advanced Video Codec
Format profile                   : High@L4.1
Format settings, CABAC           : Yes
Format settings, ReFrames        : 5 frames
Codec ID                         : V_MPEG4/ISO/AVC
Duration                         : 2h 16mn
Bit rate                         : 8 783 Kbps
Width                            : 1 920 pixels
Height                           : 800 pixels
Display aspect ratio             : 2.40:1
Frame rate                       : 23.976 fps
Color space                      : YUV
Chroma subsampling               : 4:2:0
Bit depth                        : 8 bits
Scan type                        : Progressive
Bits/(Pixel*Frame)               : 0.238
Stream size                      : 8.19 GiB (78%)
Writing library                  : x264 core 120 r2164 da19765
Encoding settings                : cabac=1 / ref=5 / deblock=1:0:0 / analyse=0x3:0x133 / me=umh / subme=7 / psy=1 / psy_rd=1.00:0.00 / mixed_ref=1 / me_range=16 / chroma_me=1 / trellis=1 / 8x8dct=1 / cqm=0 / deadzone=21,11 / fast_pskip=0 / chroma_qp_offset=-2 / threads=18 / sliced_threads=0 / nr=0 / decimate=1 / interlaced=0 / bluray_compat=0 / constrained_intra=0 / bframes=3 / b_pyramid=2 / b_adapt=1 / b_bias=0 / direct=1 / weightb=1 / open_gop=0 / weightp=2 / keyint=250 / keyint_min=23 / scenecut=40 / intra_refresh=0 / rc_lookahead=40 / rc=2pass / mbtree=1 / bitrate=8783 / ratetol=1.0 / qcomp=0.60 / qpmin=0 / qpmax=69 / qpstep=4 / cplxblur=20.0 / qblur=0.5 / ip_ratio=1.40 / aq=1:1.00
Language                         : English
Default                          : Yes
Forced                           : No

Audio #1
ID                               : 2
Format                           : DTS
Format/Info                      : Digital Theater Systems
Codec ID                         : A_DTS
Duration                         : 2h 16mn
Bit rate mode                    : Constant
Bit rate                         : 1 510 Kbps
Channel(s)                       : 6 channels
Channel positions                : Front: L C R, Side: L R, LFE
Sampling rate                    : 48.0 KHz
Bit depth                        : 24 bits
Compression mode                 : Lossy
Stream size                      : 1.44 GiB (14%)
Title                            : DTS
Language                         : English
Default                          : Yes
Forced                           : No

Audio #2
ID                               : 3
Format                           : AC-3
Format/Info                      : Audio Coding 3
Mode extension                   : CM (complete main)
Codec ID                         : A_AC3
Duration                         : 2h 16mn
Bit rate mode                    : Constant
Bit rate                         : 640 Kbps
Channel(s)                       : 6 channels
Channel positions                : Front: L C R, Side: L R, LFE
Sampling rate                    : 48.0 KHz
Bit depth                        : 16 bits
Compression mode                 : Lossy
Stream size                      : 627 MiB (6%)
Title                            : AC3
Language                         : English
Default                          : No
Forced                           : No

Text
ID                               : 4
Format                           : UTF-8
Codec ID                         : S_TEXT/UTF8
Codec ID/Info                    : UTF-8 Plain Text
Title                            : Eng FHI
Language                         : English
Default                          : No
Forced                           : No
.
Enjoy
